<?xml version="1.0" encoding="utf-8"?>
<svg version="1.1" id="Layer_1" xmlns="http://www.w3.org/2000/svg" xmlns:xlink="http://www.w3.org/1999/xlink" x="0px" y="0px"
	 width="1123px" height="200px" viewBox="0 0 1123 200" enable-background="new 0 0 1123 200" xml:space="preserve">
<g>
	<path fill="#FFFFFF" d="M342,139c-9.8,0-19.2-6.4-21.8-16.6c-5.1,9.4-14.9,16.6-27.3,16.6c-14.5,0-26.4-11.1-26.4-25.2
		c0-19.6,18.8-34.1,54.2-34.5l0.4-5.1c0.9-14.1-7.3-23-21.7-23c-10.2,0-20.9,6.4-27.7,15.4c-0.4,0.8-3.4-2.6-3.4-3
		c9-17.9,26-28.2,43.1-28.2c20,0,34.1,14.5,33.3,37.5l-1.3,39.7c-0.4,9.4,3.8,13.2,9,13.2s9-4.3,10.7-9.4c0.4-0.4,3,0.8,3,1.3
		C364.6,130.9,354.4,139,342,139z M321.1,84.9c-12.4,1.3-20,5.1-24.7,9.8c-4.3,3.8-6,9-6,14.1c0,9.4,6.8,15.3,14.9,15.3
		c5.1,0,9.8-2.1,12.8-5.1c0.9-0.8,2.1-3,2.1-5.1L321.1,84.9z"/>
	<path fill="#FFFFFF" d="M468.2,135.2c-7.3,0-20,0-26.9,0.4c-0.9,0-0.4-5.1-0.4-5.1c11.1-1.7,12.8-2.6,12.8-24.3V75.5
		c0-13.6-7.7-23-20-23c-8.1,0-15.4,3.8-19.2,9.4c-2.6,3-4.3,8.5-4.3,15.4c0,4.3,0,29,0,29c0,21.7,2.6,23,13.6,24.3
		c0.4,0,0.4,5.1-0.4,5.1c-6.4-0.4-18.3-0.4-25.2-0.4c-7.2,0-20,0-26.4,0.4c-0.9,0-0.9-5.1-0.4-5.1c11.9-2.1,14.1-2.6,14.1-24.3V69.5
		c0-22.2-2.6-23-15.8-25.6c-0.8,0-0.8-5.1,0-5.1h38.4v22.6h0.4c8.5-15.8,22.2-25.6,37.5-25.6c17.9,0,32.4,14.1,32.4,37.5v32.8
		c0,21.7,2.1,22.6,14.1,24.3c0.9,0,0.9,5.1,0,5.1C486.1,135.2,475,135.2,468.2,135.2z"/>
	<path fill="#FFFFFF" d="M549.7,139c-30.3,0-50.3-23.4-50.3-51.2c0-29.4,20-52.9,52-52.9c14.9,0,22.6,5.1,27.3,5.1
		c2.1,0,3.8-1.3,5.1-4.3c0.4-0.9,6-0.9,6,0v36.7c0,0.8-6,0.8-6,0.4c-8.1-16.6-19.2-30.7-32.4-30.7c-16.2,0-25.6,17.5-25.6,40.9
		c0,25.6,13.2,42.2,31.1,42.2c12.4,0,25.6-8.5,31.6-18.3c0.9-0.9,4.7,1.3,4.7,2.1C586.8,125.8,569.3,139,549.7,139z"/>
	<path fill="#FFFFFF" d="M632,86.1c0,21.8,11.9,38.8,32.8,38.8c12.4,0,24.3-7.7,30.7-17.9c0.4-0.4,3.8,1.3,3.8,1.7
		c-5.5,17-23.9,30.7-44.3,30.7c-32,0-50.7-23.5-50.7-51.2c0-27.7,20-52.9,52.9-52.9c25.2,0,42.2,16.6,43.5,39.2v6.8H632
		C632,82.7,632,85.3,632,86.1z M672.9,74.6v-7.2c0-15.8-7.7-24.7-17.1-24.7c-12.4,0-21.3,13.2-23,32H672.9L672.9,74.6z"/>
	<path fill="#FFFFFF" d="M752.6,138.6c-15.3,0-29.4-3.8-34.1-7.3c-0.9-0.4-1.7-13.6-2.1-26.9c0-0.8,6-0.8,6-0.4
		c8.1,17.5,20,27.7,32.4,27.7c10.7,0,18.3-5.6,18.3-14.5c0-10.2-11.9-14.9-24.3-20c-14.9-6-31.1-13.2-31.1-32
		c0-14.5,12.8-29.8,36.3-29.8c10.2,0,16.6,3.8,20.9,3.8c2.1,0,3.8-1.3,5.5-4.3c0.4-0.9,6-0.9,6,0l0.4,33.3c0,0.8-6,0.4-6.4-0.4
		c-7.7-14.9-17.9-26-29-26c-10.7,0-15.3,6.8-15.3,12.8c0,9.8,11.5,14.1,23.9,19.2c14.9,6,31.6,13.6,31.6,32.8
		C791.4,125.4,776.5,138.6,752.6,138.6z"/>
	<path fill="#FFFFFF" d="M803,49.5c-1.3,0-1.7-3.8-0.4-5.1c10.7-9.4,28.6-25.6,38-35.8c0.8-0.8,3.8,0.4,3.8,0.9v29.8h34.5
		c0.9,0,0.9,9.4,0,9.4h-34.5v56.3c0,12.8,7.3,18.3,15.8,18.3c6,0,12.8-5.1,15.3-11.1c0.4-0.8,4.3,1.7,4.3,2.1
		c-4.3,13.7-17.1,24.3-32,24.3c-15.3,0-28.6-9.8-28.6-29.9V49.1h-16.2L803,49.5L803,49.5z"/>
	<path fill="#FFFFFF" d="M962.4,65.7c-3,0-10.7-9.4-16.2-9.4c-2.6,0-5.6,1.7-7.7,3.8c-4.3,4.3-7.2,13.6-7.2,21.7v24.3
		c0,22.2,3.4,23,14.9,24.3c0.4,0,0.8,5.1,0,5.1c-6.4-0.4-19.6-0.4-26.9-0.4c-7.2,0-20,0-26.9,0.4c-0.8,0-0.4-5.1-0.4-5.1
		c11.9-2.1,13.6-2.6,13.6-24.3V69.5c0-21.8-2.6-23-15.8-25.6c-0.9,0-0.9-5.1,0-5.1h39.2v25.6h1.3c1.3-3,3-6.8,4.7-9.8
		c6.8-11.5,15.3-18.8,24.7-18.8c8.5,0,15.3,6.4,15.3,13.6C975.7,57.1,965.4,65.7,962.4,65.7z"/>
	<path fill="#FFFFFF" d="M1081,49c-4.3,4.3-6.8,12.4-13.7,30.3l-32.8,84.4C1023,194,1012.3,200,998.3,200c-8.1,0-17.1-4.3-17.5-6.4
		c-0.4-3.8,5.1-18.8,8.1-18.8c1.3,0,13.2,5.6,19.2,5.6c8.5,0,14.1-5.6,18.8-17.9l6.4-16.2c-2.1-8.1-26.4-61-29-68.6
		c-6-14.5-10.2-25.2-14.1-29c-2.6-2.6-5.1-3.4-11.9-4.7c-0.9,0-0.9-5.1,0-5.1c6.4,0.4,20,0.4,27.7,0.4c7.2,0,20.9-0.4,27.3-0.9
		c0.9,0,0.9,5.1,0,5.1c-14.9,2.1-13.7,7.3-5.5,27.3l17.9,43.1l14.1-36.7c5.1-12.8,7.3-20.5,7.3-24.7c0-5.5-3.4-7.2-14.1-8.1
		c-0.9,0-0.9-5.6,0-5.6c7.3,0,16.2,0.9,22.2,0.9c4.7,0,9.4-0.4,17.9-0.9c0.4,0,0.9,5.6,0,5.6C1087,44.4,1084,46.1,1081,49z"/>
	<path fill="#FFFFFF" d="M1101.9,32.8h-4.3v-2.6h10.7v2.1h-4.3v10.7h-2.1V32.8L1101.9,32.8z M1110.4,30.3h3l1.7,4.7l1.3,3.4l0,0
		l1.3-3.4l1.7-4.7h3v12.8h-2.6v-5.5l0.4-4.3l0,0l-3,8.1h-1.7l-3-8.1l0,0l0.4,4.3v5.5h-2.6L1110.4,30.3L1110.4,30.3z"/>
	<path fill="#9DBF3D" d="M120.3,95.1c-0.4,0.4-20,26.4-66.5,19.2c-37.5-6-52.9-26-53.7-26.9c0.4-2.6,31.6-27.3,64-26
		c32.8,0.8,57.6,20,57.6,20c0.4,0.4,20.5,0.9,20.5,0.9c-16.6-5.1-37.9-15.4-47.3-35.8c-8.5-18.3-7.2-29.9-10.2-45.6
		c0,0,37.5-3,66.1,15.8c26.4,17.1,41.4,63.5,41.8,64.8c1.3,0,16.2,0.4,16.2,0.4L204.7,0l20,0.4c-3.8,21.3,0.8,173.1,0,173.1
		c-2.1,0.4-19.2,1.3-20.9-2.1c0,0,4.3-71.6,4.3-73.3c0,0-14.9-1.3-16.2-1.3c0,0.9-1.7,41.4-33.3,64c-31.6,22.6-78,15.8-78,15.8
		c0-3.8,0-17.9,16.2-42.6c18.3-28.6,48.6-38,47.8-38C145.4,95.5,121.1,95.1,120.3,95.1z M37.5,84c0.4,0.4,11.9,16.6,33.7,18.8
		c23.5,2.6,32-9.4,32.4-9.8c0-1.7-19.2-22.6-40.5-22.2C48.6,70.8,37.5,84,37.5,84z M172.3,97.2c-5.5,0.4-27.7,2.6-42.6,20.9
		c-15.8,19.6-18.8,38.4-18.8,39.2c1.7,0.8,34.5,4.3,48.2-16.2C172.3,121.5,172.3,100.6,172.3,97.2z M151.4,32.8
		c-17.9-19.6-38-15.4-38-15.4s2.6,33.7,21.3,51.6c12.8,11.9,38.8,8.5,38.8,8.5S168.4,51.2,151.4,32.8z"/>
</g>
</svg>
