<?xml version="1.0" encoding="utf-8"?>
<svg version="1.1" id="Layer_1" xmlns="http://www.w3.org/2000/svg" xmlns:xlink="http://www.w3.org/1999/xlink" x="0px" y="0px"
	 width="2371px" height="200px" viewBox="0 0 2371 200" enable-background="new 0 0 2371 200" xml:space="preserve">
<g>
	<path fill="#9DBF3D" d="M1095.3,11.4h34.2c27.8,0,45.2,8.9,45.2,35.2c0,24.8-16.9,36.7-45.2,36.7h-25.3v54.1h-8.4L1095.3,11.4
		L1095.3,11.4z M1127.5,75.9c25.3,0,37.7-8.4,37.7-29.3c0-21.3-12.4-27.8-37.7-27.8h-23.3v56.6L1127.5,75.9L1127.5,75.9z"/>
	<path fill="#9DBF3D" d="M1194,46.2h7.4l1,17.4h1c6-11.4,14.9-19.4,25.8-19.4c3.5,0,6,0.5,8.9,2l-2,7.9c-3-1.5-5-1.5-8.4-1.5
		c-8.4,0-17.9,6-24.8,23.8V139h-8.4L1194,46.2L1194,46.2z"/>
	<path fill="#9DBF3D" d="M1285.9,43.2c21.8,0,41.2,17.9,41.2,48.1s-18.9,47.6-41.2,47.6c-21.8,0-41.2-17.9-41.2-47.6
		C1245.2,61,1264,43.2,1285.9,43.2z M1285.9,132.5c18.4,0,32.3-16.4,32.3-40.7s-13.9-41.2-32.3-41.2c-18.4,0-32.3,16.4-32.3,41.2
		S1268,132.5,1285.9,132.5z"/>
	<path fill="#9DBF3D" d="M1403.5,9.4c16.9,0,27.8,8.4,34.2,14.9l-5,6c-6.5-7.4-14.9-12.9-29.3-12.9c-28.8,0-46.7,21.8-46.7,57.1
		s16.9,57.6,45.2,57.6c11.4,0,21.8-3.5,27.8-9.9V82.9h-30.3v-7.4h38.2v50.1c-7.9,8.4-20.8,14.4-37.7,14.4
		c-32.3,0-54.1-25.3-54.1-65.5C1347.9,34.2,1370.2,9.4,1403.5,9.4z"/>
	<path fill="#9DBF3D" d="M1502.7,43.2c21.3,0,35.2,15.4,35.2,42.7c0,2,0,5-0.5,6.9h-66c0.5,22.8,13.9,39.7,34.2,39.7
		c9.9,0,17.9-3.5,24.8-8.4l3.5,6.5c-7.4,5-15.4,8.9-28.8,8.9c-23.8,0-42.7-17.9-42.7-47.6S1482.4,43.2,1502.7,43.2z M1530.5,86.4
		c0-23.8-10.4-35.7-26.8-35.7c-15.4,0-29.3,13.9-31.3,35.7H1530.5z"/>
	<path fill="#9DBF3D" d="M1563.3,46.2h7.4l1,14.4h1c9.4-9.4,18.9-16.4,31.3-16.4c18.9,0,27.8,11.4,27.8,35.2v59.1h-8.4V79.9
		c0-19.4-6-28.8-21.3-28.8c-11.4,0-18.9,6-30.3,17.4V138h-8.4V46.2L1563.3,46.2z"/>
	<path fill="#9DBF3D" d="M1697.3,43.2c21.3,0,35.2,15.4,35.2,42.7c0,2,0,5-0.5,6.9h-66c0.5,22.8,13.9,39.7,34.2,39.7
		c9.9,0,17.9-3.5,24.8-8.4l3.5,6.5c-7.4,5-15.4,8.9-28.8,8.9c-23.8,0-42.7-17.9-42.7-47.6S1676.4,43.2,1697.3,43.2z M1724.1,86.4
		c0-23.8-10.4-35.7-26.8-35.7c-15.4,0-29.3,13.9-31.3,35.7H1724.1z"/>
	<path fill="#9DBF3D" d="M1808.4,79.9c0.5-13.9-3.5-29.3-21.3-29.3c-12.4,0-22.8,6-29.3,10.9l-4-6c6.5-5,18.9-11.9,34.2-11.9
		c21.3,0,29.3,15.4,29.3,35.2v58.6h-7.4l-1-11.9h-0.5c-9.4,7.4-20.3,14.4-32.3,14.4c-14.9,0-26.8-7.9-26.8-25.3
		C1748.9,94.8,1767.7,84.9,1808.4,79.9z M1777.2,132.5c10.4,0,19.9-5,31.3-14.9V86.4c-37.7,5-50.6,13.4-50.6,27.8
		C1757.8,127.5,1766.7,132.5,1777.2,132.5z"/>
	<path fill="#9DBF3D" d="M1849.6,0h8.4v126.1c0,4,1.5,6,4,6c1,0,1.5,0,3.5-0.5l1.5,6.9c-1.5,1-3.5,1-6,1c-7.4,0-11.4-5-11.4-14.9V0
		L1849.6,0z"/>
	<path fill="#9DBF3D" d="M1928.5,43.2c21.8,0,41.2,17.9,41.2,48.1s-18.9,47.6-41.2,47.6c-22.3,0-41.2-17.9-41.2-47.6
		C1887.3,61,1906.7,43.2,1928.5,43.2z M1928.5,132.5c18.4,0,32.3-16.4,32.3-40.7s-13.9-41.2-32.3-41.2c-18.4,0-32.3,16.4-32.3,41.2
		S1910.2,132.5,1928.5,132.5z"/>
	<path fill="#9DBF3D" d="M2003,134.5L2003,134.5c-5-3-8.4-8.4-8.4-14.9c0-8.4,6-13.9,9.9-16.9v-1c-6-5-11.4-14.4-11.4-25.3
		c0-18.9,14.4-32.3,32.3-32.3c5,0,8.9,1.5,11.9,2h31.3v7.4h-21.3c6,5,9.9,13.4,9.9,22.8c0,18.9-13.9,32.3-31.8,32.3
		c-5,0-11.4-1.5-14.9-4c-4,3.5-7.4,7.4-7.4,13.4c0,6.9,4,11.9,17.9,11.9h19.9c20.8,0,30.3,6.5,30.3,21.3
		c0,15.9-17.4,31.3-43.7,31.3c-22.8,0-37.7-9.9-37.7-25.3C1989.6,147.9,1995,140.4,2003,134.5z M2028.3,174.7
		c20.8,0,33.7-11.4,33.7-22.8c0-9.9-7.4-13.9-21.3-13.9h-19.9c-2,0-6.9-0.5-11.4-1.5c-8.4,6-11.9,12.9-11.9,19.4
		C1997.5,167.2,2008.9,174.7,2028.3,174.7z M2049.6,75.9c0-15.4-10.9-25.3-23.8-25.3c-12.9,0-24.3,9.9-24.3,25.3
		s11.4,25.8,24.3,25.8C2038.7,101.7,2049.6,91.8,2049.6,75.9z"/>
	<path fill="#9DBF3D" d="M2087.3,16.4c0-5,3.5-7.9,7.9-7.9c4.5,0,7.9,3,7.9,7.9s-3.5,7.4-7.9,7.4
		C2090.8,23.8,2087.3,20.3,2087.3,16.4z M2090.8,46.2h8.4V138h-8.4V46.2z"/>
	<path fill="#9DBF3D" d="M2127.5,121.1c7.9,6.5,16.4,11.4,29.3,11.4c14.4,0,21.3-8.4,21.3-17.9c0-11.4-11.9-16.4-22.3-20.3
		c-13.9-5-29.3-10.4-29.3-26.3c0-13.4,10.4-24.8,29.3-24.8c9.9,0,19.4,4,26.3,9.9l-5,6c-6-5-12.4-8.4-21.8-8.4
		c-14.4,0-20.8,8.4-20.8,16.4c0,10.4,10.9,14.9,21.3,18.4c14.4,5.5,30.3,9.9,30.3,27.8c0,13.9-11.4,25.8-31.3,25.8
		c-13.9,0-25.3-6-33.7-12.4L2127.5,121.1z"/>
	<path fill="#9DBF3D" d="M2213.9,53.1h-14.4v-6.5l14.9-1l1.5-26.8h7.4v26.8h26.8v7.4h-26.8v60c0,11.4,3,19.4,15.4,19.4
		c3.5,0,8.4-1.5,11.4-3l2,6.9c-5.5,2-11.4,3.5-14.9,3.5c-17.9,0-22.8-11.4-22.8-27.8V53.1H2213.9z"/>
	<path fill="#9DBF3D" d="M2264.5,121.1c7.9,6.5,16.4,11.4,29.3,11.4c14.4,0,21.3-8.4,21.3-17.9c0-11.4-11.9-16.4-22.3-20.3
		c-13.9-5-29.3-10.4-29.3-26.3c0-13.4,10.4-24.8,29.3-24.8c9.9,0,19.4,4,26.3,9.9l-5,6c-6-5-12.4-8.4-21.8-8.4
		c-14.4,0-20.8,8.4-20.8,16.4c0,10.4,10.9,14.9,21.3,18.4c14.4,5.5,30.3,9.9,30.3,27.8c0,13.9-11.4,25.8-31.3,25.8
		c-13.9,0-25.3-6-33.7-12.4L2264.5,121.1z"/>
	<path fill="#555451" d="M337,141.4c-9.9,0-18.9-6.5-21.3-16.4c-5,8.9-14.9,16.4-26.8,16.4c-14.4,0-25.8-11.4-25.8-24.8
		c0-19.4,17.9-33.3,53.1-33.7l0.5-5c1-13.9-7.4-22.3-21.3-22.3c-9.9,0-20.3,6.5-27.3,14.9c-0.5,1-3.5-2-3.5-3
		c8.4-17.9,25.3-27.8,42.2-27.8c19.4,0,33.3,13.9,32.8,37.2l-0.5,38.2c-0.5,8.9,4,12.4,8.4,12.4c5,0,8.4-4,10.4-9.4
		c0.5-0.5,3,1,3,1.5C359.3,133.5,348.9,141.4,337,141.4z M316.1,88.3c-11.9,1.5-19.4,5-24.3,9.9c-4,4-6,8.4-6,13.9
		c0,8.9,6.5,14.9,14.9,14.9c5,0,9.9-2,12.4-5c1-1,2-3,2-5L316.1,88.3z"/>
	<path fill="#555451" d="M460.5,138c-7.4,0-19.9,0-26.3,0.5c-1,0-0.5-5-0.5-5c10.9-1.5,12.4-2,12.4-24.3V79.4
		c0-13.4-7.9-22.8-19.4-22.8c-8.4,0-14.9,4-18.9,8.9c-2.5,3.5-4.5,8.4-4.5,14.9c0,4.5,0,28.3,0,28.3c0,21.3,2.5,22.3,13.4,24.3
		c0.5,0,0.5,5-0.5,5c-6.5-0.5-17.9-0.5-24.8-0.5c-7.4,0-19.4,0-25.8,0.5c-1,0-1-5-0.5-5c11.9-2,13.9-2,13.9-24.3V72
		c0-21.3-2.5-22.8-15.4-24.8c-1,0-1-5,0-5h37.7V64h0.5c8.4-15.4,21.3-24.8,37.2-24.8c17.9,0,31.8,13.9,31.8,36.7v31.8
		c0,21.3,2,22.3,13.9,24.3c1,0,1,5,0,5C477.9,138,467.5,138,460.5,138z"/>
	<path fill="#555451" d="M540,141.4c-29.8,0-49.1-22.8-49.1-50.6c0-28.3,19.4-51.6,51.1-51.6c14.9,0,22.3,5,26.8,5
		c2,0,4-1.5,5-4.5c0.5-1,6-1,6,0v35.7c0,1-6,1-6,0.5c-7.9-16.4-18.9-30.3-31.8-30.3c-16.4,0-24.8,16.9-24.8,40.2
		c0,24.8,12.4,41.2,30.8,41.2c11.9,0,24.8-8.4,30.8-17.9c1-1,5,1,5,2C576.7,128,559.8,141.4,540,141.4z"/>
	<path fill="#555451" d="M621.3,89.3c0,21.3,11.9,37.7,31.8,37.7c11.9,0,24.3-7.9,30.3-17.9c0.5-0.5,4,1,4,1.5
		c-5,16.9-23.3,29.8-43.7,29.8c-31.3,0-50.1-22.8-50.1-50.6c0-27.3,19.4-51.6,51.6-51.6c24.8,0,41.2,16.4,42.7,38.2v6.9h-67
		C621.3,85.4,621.3,88.3,621.3,89.3z M661.5,77.9v-7.4c0-15.4-7.4-24.3-16.9-24.3c-11.9,0-21.3,12.4-22.8,31.3L661.5,77.9
		L661.5,77.9z"/>
	<path fill="#555451" d="M740,140.9c-14.9,0-28.8-4-33.3-7.4c-1-0.5-1.5-13.4-2-26.3c0-1,6-1,6-0.5c7.9,17.4,19.4,27.3,31.8,27.3
		c10.4,0,17.9-5,17.9-13.9c0-9.9-11.4-14.9-24.3-19.9c-14.9-6-30.8-12.9-30.8-31.3c0-14.4,12.4-29.3,35.7-29.3
		c9.9,0,16.4,4,20.8,4c2,0,4-1.5,5-4.5c0.5-1,6-1,6,0l0.5,32.8c0,1-6,0.5-6-0.5c-7.9-14.9-17.9-25.3-28.3-25.3
		c-10.9,0-14.9,6.9-14.9,12.4c0,9.9,11.4,13.9,23.8,18.9c14.9,6,31.3,13.4,31.3,32.3C777.7,127.5,762.8,140.9,740,140.9z"/>
	<path fill="#555451" d="M788.6,53.1c-1.5,0-1.5-4-0.5-5c10.4-9.4,27.8-24.8,37.2-34.7c1-1,4,0.5,4,1v29.3H863c1,0,1,9.4,0,9.4
		h-34.2v55.1c0,12.4,7.4,17.9,15.4,17.9c6,0,12.4-5,14.9-11.4c0.5-1,4.5,1.5,4,2c-4.5,13.4-16.9,23.8-31.3,23.8
		c-14.9,0-27.8-9.9-27.8-29.3V53.1H788.6L788.6,53.1z"/>
	<path fill="#555451" d="M945.4,69c-3.5,0-10.4-8.9-15.9-8.9c-2,0-5,1.5-7.9,4c-4.5,4.5-7.4,13.4-7.4,21.3v23.8
		c0,21.3,3.5,22.3,14.9,24.3c0.5,0,1,5,0,5c-6.5-0.5-19.4-0.5-26.3-0.5c-7.4,0-19.9,0-26.3,0.5c-1,0-0.5-5-0.5-5
		c11.9-2,13.4-2,13.4-24.3V73.4c0-21.3-2.5-22.8-15.4-24.8c-1,0-1-5,0-5h38.2v24.8h1c1-3,3-6.5,5-9.9
		c6.9-11.4,14.9-18.4,24.3-18.4c8.4,0,14.9,6.5,14.9,13.4C957.8,60.5,947.9,69,945.4,69z"/>
	<path fill="#555451" d="M1061.5,52.6c-4.5,4.5-6.9,11.9-13.4,29.3l-32.8,82.9C1004,194,994,200,979.7,200
		c-7.9,0-16.9-4.5-16.9-6.5c-0.5-4,5-18.4,7.9-18.4c1,0,12.9,5.5,18.9,5.5c8.4,0,13.9-5,17.9-17.9l6-15.9c-2-7.9-25.8-60-28.3-67
		c-6-13.9-9.9-24.8-13.9-28.3c-2-2-5-3.5-11.9-5c-1,0-1-5,0-5c6.5,0.5,19.9,0.5,27.3,0.5c7.4,0,20.3-0.5,26.8-1c1,0,1,5,0,5
		c-14.9,2-13.4,7.4-5,26.8l17.9,42.2l13.9-35.7c5-12.4,7.4-20.3,7.4-24.3c0-5-3.5-7.4-13.9-8.4c-1,0-1-5.5,0-5.5
		c7.4,0.5,15.9,1,21.3,1c5,0,8.9-0.5,17.9-1c0.5,0,1,5.5,0.5,5.5C1067.5,48.1,1064.5,49.6,1061.5,52.6z"/>
	<path fill="#9CBE3C" d="M118.1,97.3c-0.5,0.5-19.9,26.3-65.5,19.4C15.9,110.7,2.5,90.8,0,90.3c3-4,30.8-26.8,63-25.8
		c32.3,1,55.6,18.9,55.6,18.9c1,0,20.8,0,20.8,0c-16.4-5.5-36.7-13.4-45.2-33.7c-8.4-17.9-6-29.3-9.9-44.7c0,0,36.7-3,65,15.4
		c25.8,16.9,40.7,62,40.7,63.5c1.5,0,16.4,0,16.4,0L203,4.5L222.8,5c-3.5,20.8,1,170.2,0,170.2c-2,0.5-18.9,1.5-20.8-2
		c0,0,4-73.4,4.5-74.9c0,0-14.4,0-15.9,0c0,1-2,42.2-32.8,64s-76.9,15.4-76.9,15.4c5.5-8.4,0-17.4,15.9-41.7
		c17.9-28.3,43.2-38.2,42.2-38.2C138,97.3,119.1,97.3,118.1,97.3z M32.8,86.8c3.5,0.5,15.4,15.9,36.7,17.9
		c23.3,2.5,31.3-9.4,32.3-9.9c0-2-18.9-21.8-39.7-21.8C47.6,73.4,32.8,86.8,32.8,86.8z M169.7,100.2c-5.5,0.5-28.3,2-42.7,20.3
		c-15.4,19.4-14.9,34.7-18.4,38.7c3,1,34.2,4,48.1-16.4C169.2,123.1,169.7,103.2,169.7,100.2z M148.4,36.2
		c-17.4-18.9-34.7-15.9-37.7-15.4c1.5,0.5,3,33.3,21.3,51.1c12.4,11.4,37.7,7.4,37.7,7.4S165.3,54.1,148.4,36.2z"/>
	<path fill="#9CBE3C" d="M2341.9,48.1V64h-2.5V48.1h-6v-2h13.9l0.5,2H2341.9z"/>
	<path fill="#9CBE3C" d="M2368.2,64l-1-14.9l-6,14.9h-2l-6-14.9l-1,14.9h-2.5l1.5-18.4h3l6,14.9l6-14.9h3l1.5,18.4H2368.2z"/>
</g>
</svg>
